<?xml version="1.0" standalone="no"?>
<!DOCTYPE svg PUBLIC "-//W3C//DTD SVG 20010904//EN"
 "http://www.w3.org/TR/2001/REC-SVG-20010904/DTD/svg10.dtd">
<svg version="1.0" xmlns="http://www.w3.org/2000/svg"
 width="300.000000pt" height="300.000000pt" viewBox="0 0 300.000000 300.000000"
 preserveAspectRatio="xMidYMid meet">
<metadata>
Created by potrace 1.10, written by Peter Selinger 2001-2011
</metadata>
<g transform="translate(0.000000,300.000000) scale(0.100000,-0.100000)"
fill="#000000" stroke="none">
<path d="M1881 2273 c5 -21 9 -41 9 -45 0 -5 7 -8 16 -8 13 0 15 7 10 31 -3
17 -6 38 -6 45 0 8 -9 14 -19 14 -17 0 -18 -4 -10 -37z"/>
<path d="M1990 2296 c0 -7 -3 -28 -6 -45 -6 -30 -5 -31 26 -31 18 0 53 -11 79
-24 l47 -23 33 29 c18 16 31 30 29 32 -36 24 -67 39 -117 56 -71 24 -91 25
-91 6z"/>
<path d="M960 2276 c-111 -31 -195 -101 -246 -203 -25 -51 -29 -69 -29 -153 0
-88 3 -101 32 -161 61 -123 173 -198 308 -207 157 -10 294 68 363 208 22 45
28 72 30 147 4 86 2 98 -26 156 -16 35 -43 79 -61 99 -90 103 -242 149 -371
114z m225 -55 c25 -11 70 -43 100 -72 74 -70 98 -133 93 -244 -6 -132 -63
-221 -180 -279 -60 -31 -81 -36 -139 -36 -133 0 -249 71 -306 189 -24 48 -28
69 -28 141 0 74 4 92 29 140 68 132 179 195 324 185 34 -2 83 -13 107 -24z"/>
<path d="M1775 2281 c-8 -14 26 -81 42 -81 17 0 16 12 -4 54 -18 36 -28 43
-38 27z"/>
<path d="M1682 2227 c-15 -18 44 -85 59 -70 9 9 4 21 -19 47 -22 26 -33 32
-40 23z"/>
<path d="M2372 2144 l-82 -76 -21 26 c-23 29 -54 34 -63 10 -6 -17 17 -56 53
-89 19 -17 25 -17 43 -6 42 26 198 165 198 176 0 14 -21 35 -34 35 -6 0 -48
-35 -94 -76z"/>
<path d="M2216 2187 c-96 -55 -98 -180 -3 -237 65 -40 158 -15 192 51 14 25
14 33 4 40 -16 9 -29 2 -29 -16 0 -23 -59 -65 -91 -65 -62 0 -119 53 -119 110
0 35 31 78 69 96 27 13 41 14 69 6 57 -18 76 8 21 27 -46 16 -69 13 -113 -12z"/>
<path d="M1937 2173 c-4 -3 -7 -61 -7 -128 0 -94 -3 -125 -14 -134 -9 -8 -43
-11 -88 -10 -71 2 -73 2 -73 -22 0 -24 1 -24 73 -20 65 3 76 1 93 -18 24 -25
37 -26 67 -5 26 18 30 65 7 84 -12 10 -15 38 -15 136 0 114 -2 124 -18 124
-10 0 -22 -3 -25 -7z"/>
<path d="M1604 2148 c-8 -12 56 -69 68 -62 16 10 6 30 -27 51 -23 15 -37 18
-41 11z"/>
<path d="M1547 2054 c-14 -14 -7 -21 32 -32 49 -15 51 -15 51 2 0 8 -11 17
-24 20 -13 3 -30 8 -38 11 -8 3 -17 2 -21 -1z"/>
<path d="M1514 1948 c-10 -16 6 -26 46 -30 32 -3 40 0 40 13 0 12 -11 18 -41
21 -22 2 -43 0 -45 -4z"/>
<path d="M2340 1904 c-33 -14 -36 -19 -48 -82 -7 -36 -15 -68 -17 -71 -3 -2
-14 4 -24 13 -19 17 -20 16 -23 -73 -2 -50 -2 -91 0 -91 2 0 37 20 78 44 64
37 73 46 58 54 -16 9 -16 14 -6 37 12 26 30 186 21 184 -2 -1 -20 -7 -39 -15z
m-28 -189 c-5 -29 -20 -41 -33 -28 -5 5 -3 18 7 31 20 29 32 28 26 -3z"/>
<path d="M1550 1851 c-19 -3 -35 -12 -35 -18 0 -7 3 -13 8 -13 4 0 23 0 42 0
28 0 35 4 35 20 0 11 -3 19 -7 19 -5 -1 -24 -4 -43 -8z"/>
<path d="M1573 1753 c-38 -19 -46 -48 -10 -37 57 17 66 24 61 39 -7 18 -10 18
-51 -2z"/>
<path d="M1620 1660 c-23 -19 -32 -32 -25 -39 7 -6 22 0 45 19 23 19 32 32 25
39 -7 6 -22 0 -45 -19z"/>
<path d="M1685 1583 c-21 -27 -25 -37 -15 -43 9 -6 21 1 34 18 11 15 24 29 28
30 12 6 9 19 -5 25 -8 3 -26 -11 -42 -30z"/>
<path d="M2145 1590 c-8 -12 35 -69 53 -69 17 -1 15 4 -10 44 -24 37 -33 42
-43 25z"/>
<path d="M1772 1531 c-15 -48 -15 -51 1 -51 6 0 19 18 28 39 15 35 15 40 2 45
-8 3 -16 6 -17 6 -2 0 -8 -17 -14 -39z"/>
<path d="M2064 1554 c-16 -7 14 -84 33 -84 7 0 13 4 13 9 0 10 -29 81 -33 80
-1 0 -7 -3 -13 -5z"/>
<path d="M700 1526 c-94 -26 -169 -84 -227 -173 -48 -76 -63 -145 -63 -300 0
-116 3 -139 21 -176 32 -64 101 -156 158 -212 l51 -49 0 141 c0 211 -30 198
-40 -17 -1 -23 -4 -22 -45 24 -24 27 -58 76 -75 108 l-31 58 2 148 c1 81 6
154 10 162 4 8 18 37 31 64 42 90 143 168 245 190 23 5 44 1 80 -17 88 -45
165 -61 261 -54 87 6 192 35 221 61 35 31 180 -11 245 -72 48 -45 95 -128 111
-194 8 -35 15 -111 15 -171 0 -97 -3 -113 -26 -160 -15 -29 -36 -64 -48 -79
-11 -14 -32 -40 -45 -57 -13 -17 -27 -28 -32 -25 -5 3 -9 36 -9 74 0 60 -14
130 -24 119 -2 -2 -6 -71 -10 -152 l-6 -148 41 33 c49 39 127 140 169 219 29
54 30 63 30 176 0 180 -34 287 -120 373 -60 61 -122 96 -197 110 -60 12 -63
12 -123 -18 -83 -42 -157 -56 -260 -49 -70 5 -98 13 -156 42 -78 38 -87 39
-154 21z"/>
<path d="M1870 1511 c0 -16 -3 -36 -6 -45 -4 -10 -1 -16 9 -16 15 0 27 28 27
68 0 13 -6 22 -15 22 -10 0 -15 -10 -15 -29z"/>
<path d="M1969 1536 c-3 -3 -3 -23 -1 -45 3 -31 9 -41 21 -41 15 0 16 7 12 42
-5 37 -19 56 -32 44z"/>
<path d="M663 807 c37 -239 32 -224 89 -253 90 -46 168 -66 273 -71 118 -6
230 17 330 67 l60 30 24 148 c13 81 22 158 20 172 l-4 25 -13 -22 c-7 -12 -14
-35 -16 -50 -6 -41 -44 -215 -51 -234 -17 -44 -190 -99 -309 -99 -92 0 -197
23 -266 57 -63 32 -67 41 -95 193 -17 91 -35 143 -53 154 -5 3 0 -50 11 -117z"/>
</g>
</svg>
